# xmcd CD database file
#
# Track frame offsets:
#	150
#	15817
#	27027
#	45347
#	59435
#	74080
#	87002
#	102670
#	116332
#	127752
#	137242
#	159120
#	171880
#	184512
#
# Disc length: 2670 seconds
#
# Revision: 0
# Processed by: cddbd v1.5.1PL0 Copyright (c) Steve Scherf et al.
# Submitted via: CDex 1.51
#
DISCID=a70a6c0e
DTITLE=Hokum Hotshots - Still In The Game
DYEAR=1998
DGENRE=Blues
TTITLE0=Southern Whoopee Blues
TTITLE1=New K.C. Railroad Blues
TTITLE2=Indian Girl
TTITLE3=What You're Sitting On
TTITLE4=Travelling Blues
TTITLE5=You Do Me Anyway
TTITLE6=Unknown Blues
TTITLE7=(You Don't Need( No Religion
TTITLE8=Badmouth
TTITLE9=Cat's Whisker (Dog's Bollox)
TTITLE10=Canned Heat
TTITLE11=New Maybe It's The Blues
TTITLE12=Seminole Blues
TTITLE13=Tear It Down
EXTD=YEAR: 1998
EXTT0=
EXTT1=
EXTT2=
EXTT3=
EXTT4=
EXTT5=
EXTT6=
EXTT7=
EXTT8=
EXTT9=
EXTT10=
EXTT11=
EXTT12=
EXTT13=
PLAYORDER=
